<svg width="124" height="124" viewBox="0 0 124 124" fill="none" xmlns="http://www.w3.org/2000/svg">
<path d="M106.774 124C106.263 124 105.752 123.805 105.361 123.416L68.871 86.992C68.659 86.78 68.497 86.523 68.397 86.241L66.042 79.548L59.335 77.196C59.052 77.097 58.795 76.936 58.584 76.724L51.915 70.067C51.54 69.692 51.328 69.183 51.328 68.651C51.328 68.119 51.539 67.61 51.915 67.235L67.141 52.037C67.922 51.258 69.186 51.258 69.967 52.037L76.636 58.694C76.891 58.949 77.073 59.268 77.162 59.618L78.945 66.657L85.999 68.438C86.348 68.526 86.667 68.707 86.922 68.961L123.413 105.384C123.788 105.759 124 106.268 124 106.8C124 107.332 123.789 107.841 123.413 108.216L108.187 123.413C107.797 123.805 107.286 124 106.774 124ZM72.019 84.483L106.774 119.174L119.169 106.802L84.486 72.184L76.809 70.246C76.097 70.066 75.54 69.511 75.36 68.798L73.42 61.137L68.554 56.28L56.159 68.652L61.088 73.572L68.272 76.091C68.845 76.292 69.295 76.742 69.497 77.314L72.019 84.483Z" fill="black"/>
<path d="M57.412 66.576C56.902 66.576 56.391 66.382 56.001 65.993L12.132 22.331L5.264 19.5C4.829 19.321 4.472 18.995 4.254 18.578L0.227996 10.885C-0.179004 10.109 -0.0320037 9.15698 0.589996 8.53898L8.593 0.580982C9.163 0.0149822 10.016 -0.156018 10.759 0.147982L19.064 3.53898C19.563 3.74298 19.959 4.13898 20.161 4.63798L22.965 11.546L66.795 55.201C67.171 55.576 67.383 56.085 67.383 56.617C67.383 57.148 67.172 57.658 66.796 58.034L58.824 65.992C58.434 66.381 57.923 66.576 57.412 66.576ZM7.461 16.079L14.024 18.785C14.267 18.885 14.487 19.032 14.672 19.217L57.41 61.752L62.552 56.62L19.854 14.093C19.664 13.904 19.514 13.677 19.413 13.428L16.773 6.92398L10.475 4.35198L4.456 10.336L7.461 16.079Z" fill="black"/>
<path d="M75.223 62.111C74.69 62.111 74.159 61.9 73.765 61.48C73.009 60.675 73.049 59.409 73.854 58.653L83.893 49.223C84.404 48.744 85.13 48.566 85.804 48.756C92.452 50.625 102.7 50.332 109.694 43.351C114.833 38.222 117.411 31.26 116.838 24.509L109.272 32.061C105.198 36.125 98.764 36.318 94.924 32.487L90.169 27.74C88.386 25.96 87.403 23.553 87.403 20.964C87.403 18.187 88.567 15.433 90.595 13.408L98.154 5.86297C91.288 5.27897 84.235 7.92897 79.069 13.204C72.787 19.618 71.952 29.677 73.911 36.801C74.102 37.495 73.905 38.238 73.396 38.747L60.427 51.69C59.645 52.47 58.379 52.469 57.598 51.688C56.818 50.906 56.819 49.64 57.6 48.859L69.763 36.719C68.007 29.099 68.694 18.078 76.209 10.406C83.296 3.16897 93.487 0.183967 102.801 2.61797C103.495 2.79897 104.039 3.33797 104.226 4.02997C104.414 4.72197 104.216 5.46197 103.708 5.96797L93.419 16.24C92.136 17.52 91.401 19.242 91.401 20.966C91.401 22.485 91.966 23.886 92.993 24.91L97.748 29.657C100.029 31.934 103.93 31.742 106.444 29.231L116.734 18.96C117.241 18.453 117.978 18.258 118.671 18.445C119.362 18.633 119.9 19.175 120.082 19.868C122.487 29.042 119.589 39.126 112.519 46.183C104.687 53.999 93.515 54.715 85.828 52.894L76.592 61.57C76.206 61.932 75.714 62.111 75.223 62.111Z" fill="black"/>
<path d="M19.579 113.614C16.812 113.614 14.182 112.571 12.058 110.451C9.981 108.378 8.884 105.787 8.884 102.96C8.884 99.43 10.575 95.798 13.645 92.733L49.626 56.818C50.408 56.038 51.674 56.039 52.455 56.82C53.235 57.602 53.234 58.868 52.453 59.649L16.471 95.564C14.192 97.839 12.884 100.535 12.884 102.96C12.884 104.727 13.557 106.295 14.884 107.62C18.511 111.24 23.569 109.433 26.972 106.037L58.012 75.055C58.03 74.919 58.062 74.782 58.109 74.647C58.475 73.605 59.615 73.059 60.659 73.422L61.097 73.576C61.746 73.804 62.232 74.349 62.385 75.02C62.537 75.69 62.335 76.393 61.848 76.878L29.799 108.868C26.65 112.011 23.009 113.614 19.579 113.614Z" fill="black"/>
<path d="M107.498 108.614C106.986 108.614 106.475 108.419 106.084 108.029L80.037 81.999C79.256 81.218 79.255 79.952 80.036 79.171C80.817 78.389 82.084 78.389 82.864 79.17L108.911 105.2C109.692 105.981 109.693 107.247 108.912 108.028C108.522 108.419 108.01 108.614 107.498 108.614Z" fill="black"/>
</svg>
